<svg width="855" height="415" viewBox="0 0 855 415" fill="none" xmlns="http://www.w3.org/2000/svg">
<path d="M723.538 6.08679C751.97 0.311609 758.523 -0.354687 764.742 1.64441C770.851 3.75459 775.071 7.53111 787.843 22.5243C802.17 39.1837 808.501 44.7374 833.49 62.3964C844.93 70.5039 852.482 81.3881 853.815 91.3837C855.481 104.045 850.483 115.818 824.606 160.909C820.83 167.573 815.165 177.346 812.166 182.566C796.395 210.221 785.845 234.988 782.402 252.313C781.18 258.2 779.514 266.974 778.625 271.75C777.403 278.08 775.96 281.857 773.294 285.633C767.63 293.407 762.41 295.517 740.086 299.182C713.32 303.514 668.672 310.733 647.57 314.176C637.797 315.731 629.579 317.286 629.357 317.508C628.357 318.508 632.689 331.945 634.466 333.278C635.466 334.056 637.464 334.722 639.019 334.723C645.683 334.834 656.345 341.831 659.788 348.272C665.23 358.712 656.455 373.927 640.685 381.479C619.694 391.475 596.593 389.143 587.597 376.038C581.711 367.597 583.487 358.489 592.817 348.383L597.482 343.386L591.929 338.276C588.819 335.5 584.487 332.057 582.266 330.502L578.156 327.837L566.717 330.835C551.946 334.611 506.187 348.716 504.855 349.827C504.634 350.051 506.078 352.716 508.076 355.824C510.409 359.489 512.63 361.6 514.629 362.044C529.067 365.154 538.063 373.484 538.063 383.924C538.062 389.144 533.065 398.472 528.068 402.471C517.072 411.245 498.08 416.576 485.419 414.577C470.87 412.245 463.65 406.024 462.762 395.474C462.207 387.921 464.54 382.701 471.648 375.149C477.09 369.374 477.2 369.041 475.867 365.82C475.09 363.932 473.646 362.488 472.535 362.488C471.423 362.489 464.983 365.043 458.209 368.041C451.437 371.15 445.551 373.593 445.104 373.595C444.659 373.595 427.666 381.924 407.231 392.141L370.025 410.578L365.471 409.023C361.473 407.691 360.917 407.024 360.917 404.137C360.917 401.138 362.139 399.916 372.468 392.697C388.794 381.369 417.893 364.154 437.551 354.381C508.298 319.063 580.6 299.183 706.101 280.857C739.975 275.859 754.858 272.972 756.302 270.973C757.079 269.973 758.078 265.641 758.411 261.421C760.633 239.319 771.296 210.998 789.066 180.345C791.398 176.346 796.618 167.129 800.838 159.799C804.947 152.469 811.056 141.918 814.388 136.475C817.72 130.922 822.606 122.037 825.272 116.595C834.934 96.9366 832.491 91.7167 804.059 70.9481C792.397 62.3963 785.955 56.2873 769.962 38.4061C762.632 30.4097 755.857 23.3023 754.746 22.7469C753.413 21.9697 746.083 23.0802 731.757 25.9677C720.207 28.3 697.549 32.853 681.334 35.9628C665.119 39.0725 640.908 43.849 627.469 46.5145C614.03 49.18 591.04 53.622 576.38 56.5096C561.72 59.2862 538.729 63.8402 525.29 66.5057C511.852 69.0602 489.084 73.614 474.757 76.3905C460.43 79.1671 436.885 83.7204 422.558 86.4969C395.57 91.828 364.916 97.8253 320.935 106.488L295.391 111.597L293.502 109.265C292.058 107.488 291.836 106.266 292.613 104.266C293.28 102.379 293.169 101.268 291.947 100.38C290.059 98.7139 289.948 94.3823 291.836 92.9384C293.169 91.9388 310.828 88.2735 376.466 75.2792C393.57 71.9473 415.783 67.5049 425.89 65.5057C435.997 63.3955 455.988 59.3972 470.315 56.5096C484.642 53.622 507.409 49.1798 520.848 46.4032C534.286 43.7377 558.054 39.0725 573.603 35.9628C589.151 32.853 611.697 28.411 623.581 25.9677C635.465 23.6353 656.789 19.4151 670.783 16.6385C684.888 13.862 708.545 9.08548 723.538 6.08679ZM225.531 20.9696C233.861 19.1926 247.967 18.9704 254.408 20.5253C261.183 22.3023 269.957 30.2992 273.4 37.8514C277.398 47.1807 278.731 57.8425 277.176 68.3934C270.956 108.709 238.193 146.804 189.104 170.682L176.553 176.791L173.332 190.008C164.114 227.88 146.344 279.857 134.793 302.736C131.572 309.067 130.795 312.51 132.461 312.51C134.682 312.51 211.316 323.172 235.972 326.948C284.062 334.389 311.272 336.055 333.152 333.168C342.481 331.946 345.702 330.947 353.365 327.059C363.139 321.951 366.248 321.728 368.247 326.281C370.135 330.39 360.14 349.16 351.921 357.046C344.369 364.154 334.707 370.04 325.267 373.372C301.055 381.702 265.514 379.925 219.867 368.041C191.213 360.489 164.114 354.047 138.348 348.494L113.469 343.163L110.582 346.939C104.252 355.491 88.4801 370.484 80.4836 375.815C62.8246 387.366 40.168 391.92 24.175 387.033C18.2887 385.367 14.8456 383.368 10.6252 379.592C1.96231 371.817 0.185104 367.486 0.740417 355.824C1.18466 347.161 1.51802 345.717 5.29413 339.498C10.1809 331.39 17.0668 325.171 26.507 319.951C39.2793 312.843 56.1613 309.178 76.5969 309.178H89.0353L93.256 297.738C106.695 261.532 126.575 195.005 124.575 193.006C124.239 192.673 119.354 193.45 113.58 194.672C89.8129 199.781 75.3747 199.892 71.4875 195.116C68.8223 192.006 70.9324 176.57 74.3752 173.682C75.2637 173.015 80.9279 171.904 87.0363 171.46C95.9213 170.682 132.128 163.463 133.35 162.352C133.463 162.124 135.683 154.797 138.237 145.916C149.121 107.599 161.116 77.3899 171.889 61.1747C181.107 47.4029 195.323 34.4078 208.428 27.744C214.203 24.8565 221.866 21.7472 225.531 20.9696ZM65.3791 342.608C48.6086 342.941 34.9474 348.161 34.9474 354.048C34.9476 357.49 37.2804 359.267 42.7219 359.933C46.2759 360.489 48.6091 359.822 54.1623 357.046C60.9368 353.603 64.0469 351.27 69.2668 345.495L71.9318 342.497L65.3791 342.608ZM711.321 53.4003C724.427 51.068 730.091 51.0677 730.98 53.2889C731.979 55.9564 720.761 108.155 707.212 164.241C698.66 199.559 698.771 204.779 708.767 204.779C716.985 204.779 726.537 197.56 734.422 185.121C739.753 176.791 742.751 176.458 745.75 183.788C747.527 187.897 745.529 193.45 737.865 206.556C728.647 222.104 715.319 232.322 698.993 236.543C686.221 239.875 672.782 235.876 668.562 227.435C667.34 225.103 666.23 222.883 666.118 222.66C666.007 222.438 662.009 226.325 657.234 231.212C644.461 244.206 633.688 248.871 623.026 245.872C617.028 244.206 609.92 238.319 608.032 233.432C607.144 231.435 606.367 229.548 606.145 229.324C605.923 228.991 604.145 230.879 602.035 233.211C597.038 238.986 587.93 246.095 580.378 249.76C572.382 253.758 558.277 254.868 550.946 252.092C544.949 249.759 540.174 244.65 537.508 237.653C536.397 234.877 535.175 232.545 534.842 232.545C534.398 232.545 532.176 234.877 529.844 237.653C519.404 250.092 500.968 261.532 484.197 265.974C472.536 269.084 453.878 269.417 447.88 266.752C445.548 265.752 443.437 265.197 443.215 265.641C442.991 266.092 438.66 282.749 433.775 302.515C426.222 333.056 424.335 338.943 422.113 340.942C419.115 343.608 404.343 346.273 396.457 345.606C392.57 345.273 392.015 344.94 391.682 342.274C391.46 340.607 393.348 331.39 395.791 321.728C402.788 294.629 409.341 266.64 408.785 266.196C408.558 265.978 403.229 269.086 396.902 273.193C390.571 277.303 380.909 282.745 375.356 285.188C365.915 289.409 364.804 289.742 354.809 289.742C345.147 289.742 343.592 289.409 336.151 285.966C330.375 283.189 326.488 280.412 322.489 276.081L316.937 269.973L310.051 276.637C300.277 286.077 293.169 291.408 283.063 296.628C272.068 302.292 264.515 304.069 253.187 303.958C242.303 303.847 236.861 302.514 229.975 297.961C223.977 293.963 220.312 288.964 216.869 280.19C213.982 272.638 212.871 252.98 214.759 241.874C220.534 209.221 240.859 179.679 266.292 167.129C280.286 160.243 297.057 158.576 305.942 163.13C317.714 169.238 321.268 188.009 314.382 208C310.495 219.106 306.941 224.993 298.833 232.989C290.503 241.319 275.177 249.426 262.294 252.203C254.076 253.98 253.742 254.202 252.742 257.756C251.41 262.309 252.964 268.085 255.963 270.861C259.295 273.86 269.957 274.415 277.287 271.972C285.839 269.195 296.945 261.421 305.497 252.203C321.601 234.766 334.929 210.221 353.143 164.241C357.141 154.357 359.807 150.247 364.582 146.915C371.801 142.028 388.906 143.25 391.127 148.803C391.46 149.913 390.46 154.578 388.905 159.132C387.24 163.796 385.907 169.349 385.906 171.682C385.906 173.903 389.128 184.787 393.126 196.005C403.233 224.103 406.453 236.986 404.899 242.873C404.344 245.426 404.01 247.647 404.232 247.871C405.231 248.871 409.452 245.428 412.34 241.097C416.894 234.544 417.227 233.655 431.554 170.904C438.662 139.807 438.662 139.807 455.543 137.363C470.647 135.253 472.091 135.809 470.981 143.472L470.315 148.359L475.534 143.806C478.311 141.251 483.864 137.585 487.862 135.697C493.971 132.699 496.415 132.143 503.19 132.032C510.408 132.032 511.741 132.366 515.961 135.364C522.181 139.807 525.402 144.583 528.289 154.023C530.288 160.576 530.511 163.575 529.955 174.681C529.511 185.787 528.844 189.23 525.29 199.225C523.069 205.667 518.516 215.996 515.184 222.104C511.852 228.324 509.187 233.766 509.187 234.099C509.187 236.987 523.07 225.547 529.178 217.551C533.398 212.109 534.175 210.11 536.397 199.004C541.95 171.238 549.947 154.911 566.162 138.252C578.934 125.036 591.595 118.705 604.7 118.816C612.253 118.927 620.805 122.148 622.138 125.369C623.137 128.145 624.359 127.257 625.136 123.259C626.135 117.817 629.024 115.929 638.797 114.263C650.57 112.152 656.567 112.153 657.788 114.374C658.454 115.485 654.901 131.145 647.349 161.131C635.465 208.443 635.132 210.998 639.907 214.441C644.794 218.106 654.79 213.22 662.453 203.446C667.784 196.893 668.229 195.338 673.56 169.572C675.892 158.133 680.112 138.141 682.889 125.369C685.665 112.486 689.441 94.8263 691.329 85.9413C695.772 64.8394 697.55 58.9528 699.882 56.8427C700.993 55.8431 706.102 54.2887 711.321 53.4003ZM358.141 197.005C357.696 197.006 355.031 201.892 352.255 207.777C349.367 213.775 343.703 225.103 339.483 233.099L331.82 247.538L338.038 253.202C346.146 260.643 348.589 261.754 354.364 261.088C359.695 260.532 363.917 257.645 368.137 251.759C370.469 248.427 370.913 246.65 370.913 239.875C370.913 233.322 369.914 229.101 364.916 214.441C361.584 204.89 358.585 197.005 358.141 197.005ZM493.082 164.241C487.973 159.021 481.421 161.353 471.869 171.793C468.204 175.791 463.873 181.567 462.207 184.565C456.765 194.561 449.324 228.435 450.768 236.21C451.656 240.763 455.876 244.762 459.986 244.762C461.429 244.762 464.429 243.762 466.761 242.651C478.423 236.653 495.859 195.338 495.859 173.903C495.859 168.017 495.414 166.462 493.082 164.241ZM288.171 187.009C285.395 184.232 283.173 184.232 278.065 187.009C270.29 191.118 264.293 200.447 258.629 217.106C256.519 223.325 254.853 228.878 254.853 229.434C254.853 231.211 260.184 229.546 270.069 224.77C277.732 220.994 279.842 219.328 284.173 213.553C286.95 209.888 289.504 205.334 289.837 203.335C291.392 194.45 290.837 189.674 288.171 187.009ZM607.144 141.473C593.15 141.473 576.157 169.128 570.826 200.558C568.938 212.22 569.494 216.107 573.825 219.772C577.712 223.104 580.378 223.215 586.487 220.438C598.037 215.218 605.812 199.225 613.586 164.796C617.14 149.137 617.14 144.472 613.586 142.584C612.475 141.917 609.587 141.473 607.144 141.473ZM239.415 49.2909C226.976 42.6271 210.76 61.5075 198.21 97.3807C193.212 111.485 184.772 141.693 185.549 142.473C186.438 143.472 205.43 129.701 213.093 122.593C231.863 104.823 244.857 80.8328 244.857 63.618C244.857 56.3993 242.858 51.1792 239.415 49.2909Z" fill="black"/>
</svg>
